<?xml version="1.0" encoding="UTF-8"?>
<svg width="119px" height="94px" viewBox="0 0 119 94" version="1.1" xmlns="http://www.w3.org/2000/svg" xmlns:xlink="http://www.w3.org/1999/xlink">
    <!-- Generator: Sketch 48.2 (47327) - http://www.bohemiancoding.com/sketch -->
    <title>enclosure_119-94 copy</title>
    <desc>Created with Sketch.</desc>
    <defs></defs>
    <g id="Page-1" stroke="none" stroke-width="1" fill="none" fill-rule="evenodd">
        <g id="enclosure_119-94-copy" fill="#000000">
            <circle id="Oval-2-Copy-5" transform="translate(23.000000, 56.000000) scale(1, -1) translate(-23.000000, -56.000000) " cx="23" cy="56" r="3"></circle>
            <circle id="Oval-2-Copy" transform="translate(23.000000, 78.500000) scale(1, -1) translate(-23.000000, -78.500000) " cx="23" cy="78.5" r="5.5"></circle>
            <circle id="Oval-2-Copy-5" transform="translate(65.000000, 56.000000) scale(1, -1) translate(-65.000000, -56.000000) " cx="65" cy="56" r="3"></circle>
            <circle id="Oval-2-Copy" transform="translate(65.000000, 78.500000) scale(1, -1) translate(-65.000000, -78.500000) " cx="65" cy="78.5" r="5.5"></circle>
            <circle id="Oval-2-Copy-5" transform="translate(96.000000, 56.000000) scale(1, -1) translate(-96.000000, -56.000000) " cx="96" cy="56" r="3"></circle>
            <circle id="Oval-2-Copy" transform="translate(96.000000, 78.500000) scale(1, -1) translate(-96.000000, -78.500000) " cx="96" cy="78.5" r="5.5"></circle>
            <path d="M74,35 C73.4477153,35 73,34.5522847 73,34 C73,33.4477153 73.4477153,33 74,33 C74.5522847,33 75,33.4477153 75,34 C75,34.5522847 74.5522847,35 74,35 Z M30,35 C29.4477153,35 29,34.5522847 29,34 C29,33.4477153 29.4477153,33 30,33 C30.5522847,33 31,33.4477153 31,34 C31,34.5522847 30.5522847,35 30,35 Z M74,12 C73.4477153,12 73,11.5522847 73,11 C73,10.4477153 73.4477153,10 74,10 C74.5522847,10 75,10.4477153 75,11 C75,11.5522847 74.5522847,12 74,12 Z M30,12 C29.4477153,12 29,11.5522847 29,11 C29,10.4477153 29.4477153,10 30,10 C30.5522847,10 31,10.4477153 31,11 C31,11.5522847 30.5522847,12 30,12 Z" id="Combined-Shape"></path>
            <rect id="4-Segment" x="27" y="13" width="50" height="19"></rect>
            <circle id="Oval-2-Copy-5" cx="96.5" cy="22.5" r="3.5"></circle>
        </g>
    </g>
</svg>